PathFileType	4	(X/Y/Z)	D:\TRACE\v60_Jaco2_6-2-23\ArmBodyNoDRS1-v60.trc
DataRate	CameraRate	NumFrames	NumMarkers	Units	OrigDataRate	OrigDataStartFrame	OrigNumFrames
100.00	100.00	      27	9	mm	100.00	4656	      5320
Frame#	Time	front left toe			Front right toe			aft left toe			aft right toe			Arm			FL body			FR body			AL Body			AR Body			
		X1	Y1	Z1	X2	Y2	Z2	X3	Y3	Z3	X4	Y4	Z4	X5	Y5	Z5	X6	Y6	Z6	X7	Y7	Z7	X8	Y8	Z8	X9	Y9	Z9	

4656	46.550	-148.68042	65.06944	-267.82864	231.64920	16.76172	-268.82413	-154.03812	12.21153	349.86560	226.01361	67.43577	353.36060	113.19579	1106.50952	-624.19629	-35.42035	573.92712	-408.91507	123.50096	573.16742	-406.56879	-38.73663	562.18884	536.62842	115.25996	548.79681	539.18848	
4657	46.560	-148.64014	56.59499	-267.25040	231.61086	16.72468	-268.75977	-153.24138	11.96273	349.85965	226.24161	59.51324	353.38446	113.30148	1106.37451	-623.92688	-35.20152	573.84161	-408.76184	123.76263	573.09149	-406.42487	-38.86089	562.04791	536.73907	115.05185	548.58789	539.37378	
4658	46.570	-149.14026	48.70995	-267.28928	231.68481	16.77216	-268.63522	-154.09903	12.11644	350.04089	227.57347	52.03567	352.98041	113.83559	1106.23340	-623.76050	-35.03297	573.81232	-408.66098	124.12171	573.02985	-406.26486	-38.72196	561.87164	536.88605	115.15952	548.32440	539.50635	
4659	46.580	-149.56567	41.54900	-267.40622	231.77379	16.77064	-268.54639	-153.32558	11.92162	349.88519	227.10854	44.83080	352.94394	114.08818	1106.10486	-623.64612	-34.61736	573.65143	-408.35208	124.41556	573.02844	-406.17181	-38.70643	561.74658	536.99152	116.15842	548.10730	539.71698	
4660	46.590	-149.03700	34.02997	-267.21802	231.76752	16.66319	-268.67422	-153.33640	11.94681	349.82541	226.70848	38.20720	352.85080	114.36129	1105.98938	-623.59027	-34.33001	573.71552	-408.39120	124.60073	573.03571	-406.12534	-38.49284	561.55707	537.06396	116.42494	547.99670	539.82452	
4661	46.600	-148.88176	28.21479	-267.51260	231.72635	16.58842	-268.63882	-153.36671	11.96463	349.79993	226.97289	31.67848	352.67563	114.59865	1105.84241	-623.55902	-34.08625	573.70453	-408.39127	124.75663	573.00214	-406.10699	-38.29279	561.44788	537.13232	115.56522	548.02917	539.83746	
4662	46.610	-149.14729	22.70976	-268.05682	231.76108	16.52505	-268.55896	-153.34961	11.94089	349.83099	226.77719	25.05826	352.68796	114.84896	1105.72937	-623.40765	-33.78633	573.45917	-408.18219	125.28246	573.00391	-406.34991	-38.11517	561.47278	537.15344	115.63295	548.00397	539.91669	
4663	46.620	-150.40700	22.63543	-269.33560	231.67978	16.37763	-268.59293	-153.25713	11.93550	349.84799	226.05066	20.65127	351.04007	115.67707	1105.77698	-623.32196	-33.58083	573.58459	-408.02991	125.44237	572.90710	-406.27728	-37.91844	561.52020	537.25269	115.62733	547.91730	539.96942	
4664	46.630	-150.78870	21.05077	-269.64868	231.49475	16.47017	-268.54089	-153.21677	12.02820	349.82367	226.51131	18.78386	350.79117	116.38445	1105.88806	-623.39105	-33.15828	574.53363	-407.79126	125.79459	573.34753	-405.97601	-37.55266	562.00287	537.43488	115.88435	548.11414	540.27124	
4665	46.640	-150.36804	22.66053	-269.11847	231.55676	16.81126	-268.73370	-153.14145	12.21608	349.60672	226.67827	18.58832	350.67233	117.01586	1106.04785	-623.49969	-32.67840	574.90118	-407.63086	126.45208	573.89105	-405.57761	-37.59586	563.16077	537.52942	116.98604	549.11060	540.58295	
4666	46.650	-149.88319	22.51233	-268.85138	231.92984	18.10122	-268.43573	-152.59467	13.68481	349.43854	226.38292	18.63723	351.11966	118.34043	1106.84290	-623.14716	-32.36942	575.34082	-407.64743	126.80980	574.13116	-405.35593	-37.48606	564.65314	537.95624	116.90355	551.26221	540.91058	
4667	46.660	-149.43195	21.91032	-268.03766	231.22229	20.76421	-267.15125	-151.16301	16.30532	351.09470	226.31636	18.03993	351.31332	119.91496	1107.66724	-622.99554	-31.98011	575.82050	-407.57925	126.89452	574.45624	-404.61044	-37.82743	565.84943	538.08868	117.06673	552.05072	541.21118	
4668	46.670	-149.50136	21.92817	-268.94260	228.07541	24.23650	-264.05960	-148.27365	19.58179	353.70529	226.59808	17.86828	351.22156	120.46603	1108.54688	-623.09375	-31.47465	576.41089	-407.37628	127.71858	575.46747	-405.08862	-37.90355	566.15753	538.11066	116.03790	552.50665	540.78833	
4669	46.680	-149.34232	21.67355	-268.78967	225.14769	30.71611	-262.24167	-144.66724	26.77154	354.60480	226.75861	17.81985	351.23093	120.93427	1108.84998	-623.06470	-31.08864	576.61108	-407.40198	127.93613	575.83020	-405.19952	-37.81538	566.13977	537.91022	115.83480	552.60211	541.08875	
4670	46.690	-149.53836	21.66310	-268.99680	223.35234	39.34461	-261.28543	-142.83336	35.90432	354.06110	226.57602	17.75735	351.21423	121.29585	1108.89832	-623.03320	-30.65639	576.70691	-407.51685	128.17961	575.85760	-405.30621	-37.48735	566.15247	537.81738	116.07845	552.58484	540.49103	
4671	46.700	-149.63785	21.62492	-268.99872	223.00443	49.52330	-262.28183	-142.22723	46.11229	352.10791	226.57787	17.70403	351.26413	120.81199	1108.88672	-623.11670	-30.60967	576.70032	-407.66782	128.33168	575.78394	-405.34586	-37.06262	566.06683	537.85822	116.52070	552.45892	540.71924	
4672	46.710	-149.70227	21.56431	-269.00537	223.98805	60.97203	-264.36359	-143.09332	57.63331	350.22659	226.62552	17.41821	351.19263	120.43597	1108.52283	-623.24988	-30.62401	576.48871	-407.74188	127.92849	575.29840	-405.08279	-36.45166	565.38586	537.81500	117.29300	551.82928	540.55408	
4673	46.720	-149.98152	21.32162	-268.80081	225.91455	72.96136	-265.70569	-145.29944	69.44754	348.68286	226.61691	17.21310	351.21136	120.47641	1107.69910	-623.23871	-30.75978	576.18005	-407.67505	127.95933	574.58490	-405.28748	-35.69085	564.68958	537.76782	117.95658	550.91522	540.34308	
4674	46.730	-150.24959	20.85936	-268.71332	228.07747	85.02743	-267.22418	-146.29169	80.57078	347.56430	226.61012	17.09273	351.18472	120.57420	1107.17920	-623.27222	-30.82640	575.96082	-407.72171	127.68141	574.25482	-405.57706	-34.65775	563.92236	537.71204	118.50092	550.23956	540.17383	
4675	46.740	-150.30040	20.68481	-268.74414	229.89929	96.86785	-268.40027	-146.95636	92.11358	346.76782	226.69336	17.02680	351.10840	120.63948	1107.04260	-623.20813	-31.55482	575.81360	-408.00635	127.51136	573.88770	-405.76352	-34.22210	563.18378	537.67157	119.20516	549.53900	539.93335	
4676	46.750	-149.48711	20.13905	-268.68103	229.41583	107.47180	-270.29135	-146.30527	103.33971	346.23846	226.69434	16.99681	351.06662	120.55204	1107.05066	-623.31146	-31.89328	575.57751	-408.16205	127.26211	573.70660	-406.18607	-33.26741	562.96686	537.48737	119.79945	549.12347	539.72217	
4677	46.760	-149.65311	20.18866	-268.68900	229.43202	117.43893	-271.37207	-144.95067	113.33710	345.96048	226.85612	16.96005	351.01025	120.33086	1106.94519	-623.54193	-32.09584	575.27765	-408.38339	126.95646	573.36157	-406.72708	-32.38559	562.74640	537.17346	120.54469	548.70624	538.97278	
4678	46.770	-149.72803	20.11953	-268.57794	230.15416	126.71382	-271.93878	-142.81882	122.47660	345.67480	226.91165	16.91698	351.01941	120.05408	1106.66968	-623.64502	-32.19321	574.96918	-408.46082	126.89368	572.70679	-406.63007	-31.51399	562.72052	536.91089	121.32758	548.82520	539.27399	
4679	46.780	-149.70964	20.02359	-268.38904	230.48466	135.20399	-272.72855	-140.57741	130.69749	345.53140	226.98317	16.81602	350.94360	119.96778	1106.10779	-624.21936	-31.95157	574.43561	-408.03033	126.87907	572.49500	-406.72079	-30.84009	562.66895	536.85992	122.86915	548.60559	539.15900	
4680	46.790	-149.57079	19.87939	-268.09134	231.30388	142.47693	-273.46655	-138.95682	137.71884	345.13266	227.06107	16.78464	350.98407	119.48493	1105.50806	-624.83777	-32.11374	574.33484	-408.04031	126.62620	572.06006	-406.84253	-30.07667	562.78009	536.87494	122.81529	548.96594	538.98767	
4681	46.800	-149.47980	19.84200	-267.96445	231.68378	147.91580	-274.73126	-138.14276	143.34410	344.80661	227.12955	16.77284	350.95529	119.46407	1104.79663	-625.38025	-32.27861	574.16205	-408.12363	126.45324	571.83893	-407.09091	-29.56105	562.95221	536.82617	123.63715	549.27740	538.85181	
4682	46.810	-149.54976	19.92962	-267.94897	232.98221	149.80515	-275.13544	-137.74776	146.07559	344.88486	227.27318	16.80073	350.98367	119.45931	1104.44263	-625.66315	-32.43013	574.03174	-408.23071	126.41712	571.79633	-407.48273	-27.99225	563.52820	536.73151	126.02773	549.45264	538.61584	
